<?xml version="1.0" encoding="utf-8"?>
<!-- Generator: Adobe Illustrator 26.0.2, SVG Export Plug-In . SVG Version: 6.00 Build 0)  -->
<svg version="1.1" id="Layer_1" xmlns="http://www.w3.org/2000/svg" xmlns:xlink="http://www.w3.org/1999/xlink" x="0px" y="0px"
	 viewBox="0 0 138.62 231.1" style="enable-background:new 0 0 138.62 231.1;" xml:space="preserve">
<path d="M97.02,113.71c-2.18,1.54-3.57,2.25-4.61,3.3c-26.55,26.49-53.03,53.05-79.61,79.51c-4.77,4.75-7.42,10.09-5.8,16.83
	c2.71,11.26,16.19,15.88,25.35,8.78c1.18-0.91,2.23-2.01,3.29-3.07c30.77-30.76,61.53-61.53,92.29-92.29
	c8.86-8.87,8.85-17.46-0.05-26.36C96.94,69.45,66.01,38.51,35.06,7.58c-5.26-5.26-11.84-6.53-18.2-3.7
	c-6.15,2.74-9.83,8.85-9.42,15.68c0.28,4.63,2.58,8.19,5.8,11.39c26.46,26.4,52.88,52.85,79.33,79.26
	C93.53,111.18,94.72,111.92,97.02,113.71z"/>
</svg>
